<?xml version="1.0" encoding="UTF-8" standalone="no"?>
<!-- Created with Inkscape (http://www.inkscape.org/) -->

<svg
   width="800"
   height="800"
   viewBox="0 0 800 800"
   version="1.1"
   id="svg5"
   inkscape:version="1.1.1 (26b7af14f2, 2022-01-19)"
   sodipodi:docname="analitics.svg"
   xmlns:inkscape="http://www.inkscape.org/namespaces/inkscape"
   xmlns:sodipodi="http://sodipodi.sourceforge.net/DTD/sodipodi-0.dtd"
   xmlns="http://www.w3.org/2000/svg"
   xmlns:svg="http://www.w3.org/2000/svg">
  <sodipodi:namedview
     id="namedview7"
     pagecolor="#505050"
     bordercolor="#eeeeee"
     borderopacity="1"
     inkscape:pageshadow="0"
     inkscape:pageopacity="0"
     inkscape:pagecheckerboard="0"
     inkscape:document-units="px"
     showgrid="false"
     width="800px"
     inkscape:zoom="0.48"
     inkscape:cx="286.45833"
     inkscape:cy="409.375"
     inkscape:window-width="1294"
     inkscape:window-height="704"
     inkscape:window-x="72"
     inkscape:window-y="27"
     inkscape:window-maximized="1"
     inkscape:current-layer="layer1" />
  <defs
     id="defs2">
    <rect
       x="79.103788"
       y="323.90874"
       width="327.834"
       height="204.18599"
       id="rect21415" />
  </defs>
  <g
     inkscape:label="Layer 1"
     inkscape:groupmode="layer"
     id="layer1">
    <circle
       style="fill:#64dfdf;stroke-width:20;fill-opacity:1;stroke:#5390d9;stroke-opacity:1;stroke-miterlimit:4;stroke-dasharray:none"
       id="path31"
       cx="400"
       cy="400"
       r="375" />
    <text
       xml:space="preserve"
       id="text21413"
       style="line-height:1.25;font-family:sans-serif;font-size:40px;white-space:pre;shape-inside:url(#rect21415)" />
    <path
       id="path30848"
       style="fill:#5390d9;fill-opacity:0.8;stroke-width:12.1023;stroke-opacity:0.7"
       d="m 325.79368,337.91409 a 91.109142,91.109142 0 0 0 -7.6e-4,128.84852 91.109142,91.109142 0 0 0 120.10034,7.58082 l 106.50517,106.50516 16.32989,-16.3299 -106.50609,-106.50606 a 91.109142,91.109142 0 0 0 -7.58081,-120.09854 91.109142,91.109142 0 0 0 -128.8476,0 z m 11.31154,11.31155 a 75.11139,75.11139 0 0 1 106.22358,7.5e-4 75.11139,75.11139 0 0 1 0,106.22267 75.11139,75.11139 0 0 1 -106.22358,7.6e-4 75.11139,75.11139 0 0 1 0,-106.2245 z" />
    <text
       xml:space="preserve"
       style="font-style:normal;font-variant:normal;font-weight:bold;font-stretch:normal;font-size:155.595px;line-height:1.25;font-family:Catamaran;-inkscape-font-specification:'Catamaran Bold';fill:#5390d9;fill-opacity:0.7;stroke-width:3.88985"
       x="69.984222"
       y="433.06393"
       id="text34208"><tspan
         sodipodi:role="line"
         id="tspan34206"
         x="69.984222"
         y="433.06393"
         style="stroke-width:3.88985">1, 2, 3, 4, ...</tspan></text>
  </g>
</svg>
