<?xml version="1.0" standalone="no"?>
<!DOCTYPE svg PUBLIC "-//W3C//DTD SVG 20010904//EN"
 "http://www.w3.org/TR/2001/REC-SVG-20010904/DTD/svg10.dtd">
<svg version="1.0" xmlns="http://www.w3.org/2000/svg"
 width="800.000000pt" height="800.000000pt" viewBox="0 0 800.000000 800.000000"
 preserveAspectRatio="xMidYMid meet">
<metadata>
Created by potrace 1.14, written by Peter Selinger 2001-2017
</metadata>
<g transform="translate(0.000000,800.000000) scale(0.100000,-0.100000)"
fill="#000000" stroke="none">
<path d="M759 5806 c-2 -2 -22 -7 -44 -10 -87 -14 -159 -71 -205 -163 -18 -36
-24 -66 -25 -128 -3 -101 20 -168 76 -225 48 -48 82 -67 151 -81 29 -6 59 -15
67 -19 11 -6 14 -194 13 -1184 0 -647 -1 -1179 -3 -1180 -2 -2 -31 -6 -64 -9
-110 -11 -161 -32 -222 -94 -53 -54 -77 -124 -75 -218 3 -83 16 -126 57 -182
32 -44 120 -96 185 -110 57 -12 1008 -13 1070 -2 135 26 224 102 248 213 11
52 8 189 -5 209 -7 12 -9 17 -12 36 0 5 -18 27 -38 48 -42 43 -111 79 -170 88
-21 4 -47 8 -58 10 -11 2 -86 4 -167 4 l-146 1 0 893 1 892 34 -75 c19 -41 53
-113 75 -160 22 -47 41 -89 42 -95 2 -5 17 -41 35 -80 18 -38 76 -164 128
-280 53 -115 109 -239 126 -275 17 -36 31 -67 32 -70 2 -7 100 -225 209 -461
24 -53 28 -57 60 -57 19 0 39 -3 45 -7 6 -3 11 -3 11 2 0 8 95 7 117 -1 7 -3
13 -2 13 3 0 4 22 5 49 1 27 -3 57 -3 67 0 11 4 31 4 46 -1 14 -4 29 -4 32 -1
4 3 35 5 71 4 58 -1 64 0 71 21 4 12 20 51 36 87 32 72 36 80 68 160 12 30 31
73 41 95 10 22 70 164 134 315 64 151 124 293 134 315 10 22 67 156 127 298
60 141 111 257 114 257 3 0 4 -400 2 -890 l-2 -890 -143 -1 c-205 -2 -237 -7
-321 -48 -51 -25 -110 -79 -111 -101 0 -3 -4 -10 -8 -16 -22 -36 -26 -192 -6
-253 18 -55 66 -116 112 -142 23 -13 47 -24 52 -25 6 -2 32 -9 60 -18 42 -13
123 -15 560 -13 280 2 517 5 525 8 96 32 122 45 157 77 45 41 58 63 77 125 16
52 12 192 -5 213 -6 8 -9 17 -6 20 15 16 -109 143 -140 144 -5 0 -26 6 -48 12
-39 11 -74 15 -127 17 l-28 1 0 1190 c0 1126 1 1190 18 1191 24 2 75 -1 79 -4
1 -2 5 -21 8 -43 2 -21 7 -61 11 -89 3 -27 7 -59 9 -70 1 -11 6 -47 10 -80 3
-33 8 -71 10 -85 9 -61 27 -198 30 -230 2 -19 7 -51 10 -70 3 -19 8 -55 10
-80 3 -25 7 -61 10 -80 3 -19 7 -59 11 -88 3 -29 7 -61 9 -71 4 -20 13 -97 20
-156 3 -34 16 -131 30 -225 2 -14 6 -50 10 -80 9 -76 15 -130 20 -160 2 -14 6
-47 10 -75 15 -128 26 -216 31 -239 2 -12 7 -43 9 -71 3 -27 8 -68 11 -90 9
-59 13 -94 19 -150 4 -27 8 -63 11 -80 3 -16 7 -48 9 -70 4 -38 8 -74 20 -155
3 -19 7 -55 10 -80 6 -50 14 -109 20 -155 3 -16 8 -55 11 -85 4 -30 8 -64 10
-75 1 -11 3 -30 3 -43 l1 -22 347 2 347 3 36 108 c20 59 35 107 34 107 -2 0 5
20 16 45 11 25 19 46 19 48 -1 4 8 32 25 82 10 28 22 66 28 85 5 19 58 181
117 360 59 179 147 448 196 597 49 150 92 269 96 265 5 -6 105 -297 116 -337
1 -5 14 -44 28 -85 15 -41 28 -82 30 -90 6 -22 44 -132 52 -150 3 -8 7 -19 8
-25 3 -11 143 -430 153 -455 3 -8 6 -17 7 -20 0 -3 41 -125 90 -273 l90 -267
342 0 c267 0 343 3 344 13 2 28 19 165 24 197 2 14 6 48 10 75 3 28 7 66 10
85 2 19 7 58 10 85 3 28 8 61 10 75 2 14 7 48 10 75 3 28 8 66 10 85 3 19 7
55 10 80 3 25 7 61 10 80 3 19 7 60 10 90 3 30 8 71 11 90 3 19 7 46 9 60 4
36 16 140 20 175 5 36 10 79 25 200 6 50 13 101 15 115 2 14 7 50 10 80 3 30
8 66 10 80 2 14 6 54 10 90 3 36 8 72 11 81 2 8 6 37 9 65 3 27 7 63 9 79 2
17 9 75 16 130 6 55 13 111 16 125 3 14 7 50 10 80 2 30 6 66 9 80 7 47 14
105 21 160 3 30 8 71 11 90 2 19 6 46 7 60 2 14 7 54 12 90 8 66 11 89 13 115
0 8 17 17 39 21 54 10 135 50 171 86 70 69 95 161 77 290 -15 110 -114 200
-248 225 -72 14 -1106 9 -1156 -5 -88 -25 -182 -88 -182 -122 0 -6 -5 -10 -12
-10 -6 0 -8 -3 -5 -7 4 -3 1 -13 -6 -21 -8 -10 -12 -51 -12 -121 1 -95 4 -111
28 -159 28 -53 105 -121 139 -122 9 0 19 -4 22 -9 5 -8 67 -20 136 -27 14 -1
111 -3 217 -3 l191 -1 -4 -37 c-3 -21 -7 -51 -8 -68 -2 -16 -7 -57 -11 -90 -5
-33 -9 -69 -11 -80 -1 -11 -3 -20 -4 -20 -1 0 -3 -18 -5 -40 -2 -22 -6 -56 -8
-75 -3 -19 -8 -60 -12 -90 -3 -30 -8 -66 -10 -80 -6 -42 -14 -103 -20 -150 -7
-66 -16 -132 -21 -160 -3 -14 -7 -49 -9 -77 -3 -29 -7 -65 -9 -80 -5 -29 -11
-72 -21 -153 -3 -25 -8 -63 -12 -85 -3 -22 -7 -51 -8 -65 -4 -36 -14 -119 -20
-160 -10 -69 -17 -135 -17 -155 l1 -20 -12 20 c-6 11 -12 25 -14 30 -1 6 -63
190 -138 410 -75 220 -137 405 -138 410 -12 44 -171 512 -177 520 -5 6 -126
10 -327 10 l-318 0 -12 -35 c-165 -488 -435 -1289 -438 -1300 -2 -8 -8 -26
-14 -40 -8 -22 -10 -22 -11 -5 -1 11 -3 29 -5 40 -4 19 -20 137 -30 218 -5 38
-14 100 -21 152 -3 17 -7 46 -9 65 -8 75 -16 136 -19 156 -3 12 -7 48 -11 80
-4 33 -9 70 -11 84 -3 14 -7 45 -10 70 -2 25 -8 61 -11 80 -4 19 -6 38 -5 41
1 4 -3 33 -8 65 -8 52 -16 112 -25 179 -1 11 -6 47 -11 80 -4 33 -7 63 -6 68
1 4 -2 26 -7 50 -5 23 -12 67 -15 97 -4 30 -9 74 -12 98 l-6 42 194 1 c106 0
202 2 213 4 11 2 36 7 55 10 66 12 135 48 177 92 104 107 98 328 -10 419 -34
29 -113 68 -162 80 -50 13 -1955 15 -1955 3 0 -6 -14 -41 -31 -77 -17 -37 -42
-94 -56 -127 -24 -57 -33 -79 -81 -185 -11 -25 -106 -243 -212 -485 -235 -538
-212 -486 -249 -568 -17 -38 -31 -70 -31 -73 0 -2 -15 -37 -33 -76 -19 -40
-49 -110 -68 -155 -19 -45 -37 -83 -40 -83 -3 0 -16 24 -29 53 -13 28 -36 81
-53 117 -16 36 -56 126 -89 200 -33 74 -70 158 -83 185 -50 110 -63 140 -64
148 0 4 -7 20 -15 35 -8 15 -26 52 -39 82 -14 30 -37 82 -52 115 -15 33 -53
119 -85 190 -32 72 -72 160 -89 198 -17 37 -31 69 -31 71 0 2 -18 44 -41 93
-22 48 -46 102 -54 118 -7 17 -25 57 -40 90 -15 33 -36 79 -46 103 l-18 42
-384 0 c-211 0 -386 -2 -388 -4z"/>
</g>
</svg>
